<svg width="25" height="25" viewBox="0 0 25 25" fill="none" xmlns="http://www.w3.org/2000/svg">
<path d="M8.75 12.5C11.5117 12.5 13.75 10.2617 13.75 7.5C13.75 4.73828 11.5117 2.5 8.75 2.5C5.98828 2.5 3.75 4.73828 3.75 7.5C3.75 10.2617 5.98828 12.5 8.75 12.5ZM12.25 13.75H11.5977C10.7305 14.1484 9.76562 14.375 8.75 14.375C7.73438 14.375 6.77344 14.1484 5.90234 13.75H5.25C2.35156 13.75 0 16.1016 0 19V20.625C0 21.6602 0.839844 22.5 1.875 22.5H12.6133C12.5195 22.2344 12.4805 21.9531 12.5117 21.668L12.7773 19.2891L12.8242 18.8555L13.1328 18.5469L16.1523 15.5273C15.1953 14.4453 13.8086 13.75 12.25 13.75V13.75ZM14.0195 19.4258L13.7539 21.8086C13.7109 22.207 14.0469 22.543 14.4414 22.4961L16.8203 22.2305L22.207 16.8438L19.4062 14.043L14.0195 19.4258V19.4258ZM24.7266 13.0039L23.2461 11.5234C22.8828 11.1602 22.2891 11.1602 21.9258 11.5234L20.4492 13L20.2891 13.1602L23.0938 15.9609L24.7266 14.3281C25.0898 13.9609 25.0898 13.3711 24.7266 13.0039V13.0039Z" fill="white"/>
</svg>
